HIERARCHY
ROOT Hips
{
	OFFSET -14.64140 90.27770 -84.91600
	CHANNELS 6 Xposition Yposition Zposition Zrotation Xrotation Yrotation
	JOINT Spine
	{
		OFFSET 0.00000 13.20850 -1.60436
		CHANNELS 3 Zrotation Xrotation Yrotation
		JOINT Spine1
		{
			OFFSET 0.00000 8.61716 0.00000
			CHANNELS 3 Zrotation Xrotation Yrotation
			JOINT Spine2
			{
				OFFSET 0.00000 8.61717 0.00000
				CHANNELS 3 Zrotation Xrotation Yrotation
				JOINT Spine3
				{
					OFFSET 0.00000 8.61717 0.00000
					CHANNELS 3 Zrotation Xrotation Yrotation
					JOINT Neck
					{
						OFFSET 0.00000 11.07920 1.10792
						CHANNELS 3 Zrotation Xrotation Yrotation
						JOINT Neck1
						{
							OFFSET 0.00000 7.08032 0.00000
							CHANNELS 3 Zrotation Xrotation Yrotation
							JOINT Head
							{
								OFFSET 0.00000 7.08031 0.00000
								CHANNELS 3 Zrotation Xrotation Yrotation
								End site
								{
									OFFSET 0.00000 0.00000 0.00000
								}
							}
						}
					}
					JOINT RightShoulder
					{
						OFFSET -0.01000 7.91373 5.19711
						CHANNELS 3 Zrotation Xrotation Yrotation
						JOINT RightArm
						{
							OFFSET -18.41580 0.00000 0.00000
							CHANNELS 3 Zrotation Xrotation Yrotation
							JOINT RightForeArm
							{
								OFFSET -29.11090 0.00000 0.00000
								CHANNELS 3 Zrotation Xrotation Yrotation
								JOINT RightHand
								{
									OFFSET -24.65040 0.00000 0.00000
									CHANNELS 3 Zrotation Xrotation Yrotation
									JOINT RightHandThumb1
									{
										OFFSET -5.35114 -0.85590 3.97906
										CHANNELS 3 Zrotation Xrotation Yrotation
										JOINT RightHandThumb2
										{
											OFFSET -4.52789 0.00000 0.00000
											CHANNELS 3 Zrotation Xrotation Yrotation
											JOINT RightHandThumb3
											{
												OFFSET -2.46976 0.00000 0.00000
												CHANNELS 3 Zrotation Xrotation Yrotation
												End site
												{
													OFFSET 0.00000 0.00000 0.00000
												}
											}
										}
									}
									JOINT RightHandIndex1
									{
										OFFSET -14.26970 0.00000 2.88139
										CHANNELS 3 Zrotation Xrotation Yrotation
										JOINT RightHandIndex2
										{
											OFFSET -5.48836 0.00000 0.00000
											CHANNELS 3 Zrotation Xrotation Yrotation
											JOINT RightHandIndex3
											{
												OFFSET -3.01859 0.00000 0.00000
												CHANNELS 3 Zrotation Xrotation Yrotation
												End site
												{
													OFFSET 0.00000 0.00000 0.00000
												}
											}
										}
									}
									JOINT RightHandMiddle1
									{
										OFFSET -14.26970 0.00000 -0.09147
										CHANNELS 3 Zrotation Xrotation Yrotation
										JOINT RightHandMiddle2
										{
											OFFSET -6.17441 0.00000 0.00000
											CHANNELS 3 Zrotation Xrotation Yrotation
											JOINT RightHandMiddle3
											{
												OFFSET -3.56743 0.00000 0.00000
												CHANNELS 3 Zrotation Xrotation Yrotation
												End site
												{
													OFFSET 0.00000 0.00000 0.00000
												}
											}
										}
									}
									JOINT RightHandRing1
									{
										OFFSET -12.69180 0.00000 -3.06433
										CHANNELS 3 Zrotation Xrotation Yrotation
										JOINT RightHandRing2
										{
											OFFSET -5.62556 0.00000 0.00000
											CHANNELS 3 Zrotation Xrotation Yrotation
											JOINT RightHandRing3
											{
												OFFSET -3.56744 0.00000 0.00000
												CHANNELS 3 Zrotation Xrotation Yrotation
												End site
												{
													OFFSET 0.00000 0.00000 0.00000
												}
											}
										}
									}
									JOINT RightHandPinky1
									{
										OFFSET -11.11390 0.00000 -6.03719
										CHANNELS 3 Zrotation Xrotation Yrotation
										JOINT RightHandPinky2
										{
											OFFSET -4.52789 0.00000 0.00000
											CHANNELS 3 Zrotation Xrotation Yrotation
											JOINT RightHandPinky3
											{
												OFFSET -2.46976 0.00000 0.00000
												CHANNELS 3 Zrotation Xrotation Yrotation
												End site
												{
													OFFSET 0.00000 0.00000 0.00000
												}
											}
										}
									}
								}
							}
						}
					}
					JOINT LeftShoulder
					{
						OFFSET 0.01000 7.91373 5.19711
						CHANNELS 3 Zrotation Xrotation Yrotation
						JOINT LeftArm
						{
							OFFSET 18.41580 0.00000 0.00000
							CHANNELS 3 Zrotation Xrotation Yrotation
							JOINT LeftForeArm
							{
								OFFSET 29.11090 0.00000 0.00000
								CHANNELS 3 Zrotation Xrotation Yrotation
								JOINT LeftHand
								{
									OFFSET 24.65040 0.00000 0.00000
									CHANNELS 3 Zrotation Xrotation Yrotation
									JOINT LeftHandThumb1
									{
										OFFSET 5.35114 -0.85590 3.97906
										CHANNELS 3 Zrotation Xrotation Yrotation
										JOINT LeftHandThumb2
										{
											OFFSET 4.52789 0.00000 0.00000
											CHANNELS 3 Zrotation Xrotation Yrotation
											JOINT LeftHandThumb3
											{
												OFFSET 2.46977 0.00000 0.00000
												CHANNELS 3 Zrotation Xrotation Yrotation
												End site
												{
													OFFSET 0.00000 0.00000 0.00000
												}
											}
										}
									}
									JOINT LeftHandIndex1
									{
										OFFSET 14.26970 0.00000 2.88139
										CHANNELS 3 Zrotation Xrotation Yrotation
										JOINT LeftHandIndex2
										{
											OFFSET 5.48836 0.00000 0.00000
											CHANNELS 3 Zrotation Xrotation Yrotation
											JOINT LeftHandIndex3
											{
												OFFSET 3.01859 0.00000 0.00000
												CHANNELS 3 Zrotation Xrotation Yrotation
												End site
												{
													OFFSET 0.00000 0.00000 0.00000
												}
											}
										}
									}
									JOINT LeftHandMiddle1
									{
										OFFSET 14.26970 0.00000 -0.09147
										CHANNELS 3 Zrotation Xrotation Yrotation
										JOINT LeftHandMiddle2
										{
											OFFSET 6.17440 0.00000 0.00000
											CHANNELS 3 Zrotation Xrotation Yrotation
											JOINT LeftHandMiddle3
											{
												OFFSET 3.56744 0.00000 0.00000
												CHANNELS 3 Zrotation Xrotation Yrotation
												End site
												{
													OFFSET 0.00000 0.00000 0.00000
												}
											}
										}
									}
									JOINT LeftHandRing1
									{
										OFFSET 12.69180 0.00000 -3.06433
										CHANNELS 3 Zrotation Xrotation Yrotation
										JOINT LeftHandRing2
										{
											OFFSET 5.62556 0.00000 0.00000
											CHANNELS 3 Zrotation Xrotation Yrotation
											JOINT LeftHandRing3
											{
												OFFSET 3.56744 0.00000 0.00000
												CHANNELS 3 Zrotation Xrotation Yrotation
												End site
												{
													OFFSET 0.00000 0.00000 0.00000
												}
											}
										}
									}
									JOINT LeftHandPinky1
									{
										OFFSET 11.11390 0.00000 -6.03719
										CHANNELS 3 Zrotation Xrotation Yrotation
										JOINT LeftHandPinky2
										{
											OFFSET 4.52789 0.00000 0.00000
											CHANNELS 3 Zrotation Xrotation Yrotation
											JOINT LeftHandPinky3
											{
												OFFSET 2.46976 0.00000 0.00000
												CHANNELS 3 Zrotation Xrotation Yrotation
												End site
												{
													OFFSET 0.00000 0.00000 0.00000
												}
											}
										}
									}
								}
							}
						}
					}
					JOINT pCube4
					{
						OFFSET 0.00000 10.91090 1.10792
						CHANNELS 3 Zrotation Xrotation Yrotation
						End site
						{
							OFFSET 0.00000 0.00000 0.00000
						}
					}
				}
			}
		}
	}
	JOINT RightUpLeg
	{
		OFFSET -9.98441 0.00000 0.00000
		CHANNELS 3 Zrotation Xrotation Yrotation
		JOINT RightLeg
		{
			OFFSET 0.00000 -42.11790 0.00000
			CHANNELS 3 Zrotation Xrotation Yrotation
			JOINT RightFoot
			{
				OFFSET 0.00000 -45.00020 -0.00001
				CHANNELS 3 Zrotation Xrotation Yrotation
				JOINT RightForeFoot
				{
					OFFSET 0.00000 -3.74820 0.00000
					CHANNELS 3 Zrotation Xrotation Yrotation
					JOINT RightToeBase
					{
						OFFSET 0.00000 0.06325 14.43120
						CHANNELS 3 Zrotation Xrotation Yrotation
						End site
						{
							OFFSET 0.00000 0.00000 0.00000
						}
					}
				}
			}
		}
	}
	JOINT LeftUpLeg
	{
		OFFSET 9.98441 0.00000 0.00000
		CHANNELS 3 Zrotation Xrotation Yrotation
		JOINT LeftLeg
		{
			OFFSET 0.00000 -42.11800 0.00000
			CHANNELS 3 Zrotation Xrotation Yrotation
			JOINT LeftFoot
			{
				OFFSET 0.00000 -45.00070 0.00000
				CHANNELS 3 Zrotation Xrotation Yrotation
				JOINT LeftForeFoot
				{
					OFFSET 0.00000 -3.74824 0.00000
					CHANNELS 3 Zrotation Xrotation Yrotation
					JOINT LeftToeBase
					{
						OFFSET 0.00000 0.06325 14.43110
						CHANNELS 3 Zrotation Xrotation Yrotation
						End site
						{
							OFFSET 0.00000 0.00000 0.00000
						}
					}
				}
			}
		}
	}
}
MOTION
Frames: 4
Frame Time: 0.050000
0.007025652359727502 -0.016993807137430955 -0.006899230818511299 0.00529681007166523 0.02498911047880599 -0.038189266800506834 2.594958974881336 3.7327460403127253 -1.7392060465337518 -0.8444946633605518 3.620663809182963 0.40470521260877673 -0.7813527809058408 -0.9923829011773024 0.38071548277743955 -0.6020818171251909 -0.13934002974622356 -0.3431823767425198 -0.23684668120161845 10.540294617614226 -0.5045983831643537 0.3146247537361663 -2.148495597468038 -1.5952160902551444 0.831995248282782 -19.378894578838597 -0.2405900602928649 -7.251576535165224 2.882764837800299 -16.006809444211154 82.95794748182205 20.59425031183599 2.287175806978126 -8.368894416070953 0.45405267438386976 50.63890792210378 19.09586911094057 -0.28976139842704346 -3.139856838023384 4.539761639461832 -0.10864924739430643 -1.5444363056873711 -0.03348614080210926 -0.044483572283997935 -56.19544505859125 -0.045599275023049966 -0.01203743085155641 -56.20488357690733 -38.76361149793949 0.028641852905376443 0.044620535689535924 -0.00543410378932038 -0.0440497015071622 0.02077212664657571 -0.0056133613861814305 0.007265512866459235 -0.003435371422154004 -36.72912872298641 -0.043921676971663354 -0.014906512072696668 -0.04167852572553513 -0.033529417725192905 0.023685088411649142 -0.005431949345237693 0.027122539531205633 0.010582446086948966 -19.75632969676536 0.021228089175604894 -0.011674635981148975 -0.025489264009648654 -0.0038940941987283457 0.017007336509499895 -0.04957646318241313 -0.032182619584819765 0.01346282867717751 24.076234162104694 0.007478139938386909 0.04716363964912961 28.83675333387585 -0.01787109401181028 0.04871366246320597 28.866088879252043 -0.008548255138564305 -0.0015325312623929955 7.67553354531584 1.929401690413271 13.549435750594254 -77.40022487504778 24.745903135101752 -8.47465694462561 -0.53301844334223 -0.3516137274638333 -41.57541019280986 -19.935456515062892 -5.334239545326393 6.17654908822387 -0.4461338309015948 0.05354719268095088 -8.171560237180566 0.01752171022754536 0.00019871050304299582 44.580493556984585 0.014315826761738518 0.018994747073163634 44.60159942124208 12.459374953258337 -0.0040527445216929775 0.022052023235557463 0.009941283967164994 0.0390540953960681 0.008109925175173017 0.032981378968208186 0.0025370097866662467 0.007021263284145061 11.137919567324813 0.019187695763998956 0.033044676903293324 -0.04234769860788277 -0.032345477974408954 0.03542840308552961 0.03828380881606147 0.019552880019981834 0.018031248529703933 4.773659289511796 -0.01894524362447461 0.011033483411367362 0.02991047683692097 0.04654351975504111 -0.001001441368223543 -0.03705850860831734 0.0036177791827723786 -0.014340638255668236 -5.590529840267353 -0.02607125563591837 -0.04353020414934511 -6.758576359901047 0.02855807722638465 -0.005351563390973638 -6.677616712385451 0.045682672081624964 -0.04368553651662956 -0.0025448818222106985 0.014272274838174108 -0.039310181479274627 8.028041052132945 3.4888680628888324 -19.247382685706725 0.019602147724731046 10.356720481733282 -0.014388492766197272 -5.6391916901459185 -15.709709834339945 3.1624978837281503 0.0004315289498510044 -0.025133743994163828 -0.04971694032533866 0.0334795200512781 4.722136117102414 0.01257245416742216 12.44685070735171 -8.28739386231746 6.873150432324946 -0.04919701367615221 46.426492114489136 0.013591897631393249 -4.3200019212488465 -14.755362610193837 -3.8444781217339834 -0.016096501092322472 -0.026985320578783775 0.011644828415758611 -0.0045001711514092565 -10.745178928335665 -0.02256857662264689 
-0.003075297364140585 -0.03439192845454404 0.04247830849671282 -0.0245306737234469 0.0033146369150995267 0.001597931964447576 2.903105113691438 3.680562906367351 -1.8134805556898583 -0.8830261925729224 3.5659881070052433 0.3784612893089955 -0.7443216942633739 -1.0018181653010199 0.4672443972406236 -0.5547087140670646 -0.08962002443994284 -0.38028131484061317 -0.14133505051584724 10.627121992002657 -0.56288956476275 0.3355622613114297 -1.9755704338896507 -1.8168946446489285 0.8548936456813949 -19.262989030464276 -0.19388263373043074 -7.481770570564766 2.9320174201151756 -16.16773599913424 83.19871871935018 20.63746466535613 2.3811469745641407 -9.103106274058337 -0.08027378789741801 50.98136674414434 18.9255035592254 -0.30546711992096937 -3.2328252479644823 4.507380152304348 -0.16177510217259702 -1.6310053291821007 0.01127082051595514 0.03609070079320284 -56.251605139994574 0.009569127725058144 0.045699920365368796 -56.278209451694764 -38.79672263109518 -0.031535144739840384 -0.03363305620526927 -0.03443702231876971 0.005253440054528661 -0.010086146153605082 0.030683859213006454 -0.025535698381106895 0.03265021973508349 -36.68821745480782 -0.03164846618733017 0.01664889676970667 -0.005632107308678906 0.045094734043935075 -0.04602195833130841 0.003973151486322069 0.03957657956856538 0.02933793761550925 -19.777264942054764 0.03649121831380705 -0.01275467730904121 0.026668429663264097 -0.012140921827139302 -0.04458353470032755 -0.034444113745065785 0.012542036086459435 -0.03274719362036889 24.04232454325931 -0.013152969933646988 -0.010562495194358243 28.879110250978396 0.015895332131819193 0.036622932873513675 28.867809904765046 0.016771067998778148 0.01870290493525942 7.806453105909987 1.9895078695544324 13.672909695418117 -77.48213885099828 25.169614531753012 -8.503846698137858 -0.7989628468823943 0.03725396283525942 -42.11156069667268 -20.495824636483842 -5.916659201746434 6.610488769777362 -0.4654536937260252 0.034518738300618114 -8.114574954178597 0.009145315141782788 0.04510041542746587 44.554196269122954 -0.03745274244361237 -0.013285723851610353 44.58483915342918 12.4598504140587 0.009510774800084967 0.0015037949692440675 0.008477104551869149 0.03509546654459926 -0.01249027645801491 -0.02559000324834868 0.00039797452874712876 0.028478840272066815 11.121786416044715 0.00892369339333111 -0.020515289469856982 0.016181198301986797 0.03643892389100166 -0.007761452921714468 -0.01780732042230883 0.02558282207007855 -0.0464790495643041 4.812669383047629 0.01821508549011493 0.025668921956142673 -0.041370407864903605 0.02719936656781821 0.02390991120996805 0.014009399475951265 0.013113543896748145 0.0004081343703394034 -5.55809517670364 -0.04912710375837379 0.013722492138215091 -6.684439081695442 -0.024871353031911764 -0.005417907011061154 -6.732689732941989 0.0004745999357751436 0.006795918413320127 -0.034165249313178776 -0.04484582709965979 0.017112352796792015 8.005317135277082 3.4661143832060346 -19.180713933063437 0.032896074298764726 10.376943186184697 0.05534891511338645 -5.643238902343497 -15.651576774164061 3.1890649435605223 0.0181784836562248 0.0016115898918648245 0.02485161598445818 0.009959784483626844 4.68397972406504 0.01208258001529196 12.478837451481033 -8.265422188937158 6.892637598626274 0.01452431226140044 46.34851124126059 0.03617915001318474 -4.286433743419193 -14.705535357560988 -3.8160540542426094 0.034642017643315134 0.007712963380719725 -0.04824177689174695 0.002439477871087873 -10.739848430210182 -0.028308005952777517 
-0.03594859526912923 -0.03995218822018738 -0.048771574755595064 0.031004238850191337 -0.04547560546352875 0.037332586671185754 3.0675408050434307 3.6651192130690577 -1.8222963968979982 -0.905303603704354 3.552135646890586 0.4316853700768905 -0.744029848198168 -0.9357228563023497 0.4300560501827145 -0.5785989577268854 -0.07528533855014337 -0.396917483877294 -0.16793922274269207 10.711980757793327 -0.616193799137537 0.30191924561126543 -1.8909534606569138 -1.7662880433737225 0.8302152047487477 -19.155321308134916 -0.22016983495871006 -7.609429764569886 2.922644754957474 -16.35810447551135 83.48186478160383 20.934740992020068 2.4970064181449185 -9.385476604599152 -0.9515575123976995 50.36912666840788 18.709957576650314 -0.2439799673901616 -3.3169182328950506 4.5117216872400725 -0.1176558757706186 -1.6181052050348026 -0.017168916028591465 0.0018815838850784964 -56.222497251601155 0.03128804045372578 0.021848808083417902 -56.24263829190169 -38.72027093584764 -0.02180920765800087 -0.009088451583379752 -0.039083830961904806 0.0038973342689441453 -0.027204683633257766 0.013275167647371447 -0.027157613487927158 -0.02313717311273443 -36.70531687932165 -0.013105505495156218 -0.0058296624461225246 0.027660194678378523 0.010510192084508908 0.022744602661725125 -0.033156795214211374 0.011545184790227243 0.0478162298242845 -19.79236852297186 0.03206040450595051 0.004981337933989027 -0.019221896398055546 0.03962506592062097 0.012246859258580342 -0.004848534498296059 -0.0454475451128106 -0.045730627025441194 24.093051536732645 -0.03622778426747624 -0.04851246986790558 28.88121203776997 -0.019656167543049347 -0.002551295589302165 28.88253625597326 0.014085459000581689 -0.029776803809543607 7.848677927098011 2.0018647627153983 13.794138862559183 -77.56946598834487 25.42513499833796 -8.460859386253205 -0.8238830625013632 -0.23781238956060458 -42.065331152359406 -20.397567657383338 -6.110623561607614 6.783159073644492 -0.49123914495662974 0.11308016590458662 -8.111228883890773 -0.035267224764765494 -0.033736973443594595 44.558862390375005 -0.016455450989953945 -0.01635826705658181 44.532958013903674 12.48600716724815 -0.0279623079391796 0.025841814955821114 0.0331259058347697 -0.04031416677838109 -0.007361616822580618 0.01579255262947379 -0.03302090836696797 0.025451817488735377 11.062147978184019 -0.001163894152390496 0.0021523372182104053 0.024657125947366628 -0.02780679557044992 0.04168294677502139 0.013811684433769365 0.021136896281407982 -0.04971883642519995 4.7461739202044715 -0.0193199573170477 -0.03150862341900347 0.03655674757731184 -0.02966279090860785 0.006042751422635422 -0.014354675749908927 -0.009242532443778345 -0.023782141488956215 -5.595803560521507 0.004569730248274794 0.04531363530460311 -6.690438089226378 -0.03106012292663561 0.04564939310620924 -6.685812105145488 0.04626298770981636 0.03743799295228551 0.004290658483892192 -0.01659592797816104 -0.048879984606465664 8.014263490817605 3.4781635486683267 -19.196469711965957 -0.015346940940747135 10.42580875164126 0.03254685265288317 -5.6077719231247345 -15.689085301558796 3.2213421650219645 0.049743332928519034 0.00792541869067607 -0.04766753204474004 0.012810611835271778 4.671305288702035 -0.005511748677426987 12.449863098400094 -8.252295111178237 6.863922717189758 -0.006268116247417429 46.3407561713556 0.006235023545347988 -4.305379415553045 -14.74378886227904 -3.8381069181432528 0.04481796538689527 -0.0339410371021336 -0.017715278707263356 -0.03921285835085834 -10.748158463023262 0.007829107887819348 
-0.038461186336413766 -0.037043634875382626 -0.0383970288361795 -0.01398157396195263 0.043917256023853164 0.019377676727211045 3.1608757775735064 3.5057663786658737 -1.8219385182339485 -0.8945588671219117 3.6084860378224732 0.3729722003524303 -0.7753791536183027 -0.9427609982727009 0.45293261837403626 -0.541113727683658 -0.0324645965810939 -0.32381455514628654 -0.1832113847647673 10.775498663859091 -0.5735815174309675 0.27270262542747403 -1.818315023273712 -1.638482456534104 0.7760952581897274 -18.96956801843915 -0.20682874837538298 -7.7336034885980665 2.957141214566527 -16.49873325977089 83.6295811747167 20.92592381730501 2.049488846045492 -8.971065268689184 -1.6574477835435504 48.75621248350727 18.507944114945673 -0.31766224147238215 -3.3359812000967595 4.511321617077992 -0.11933658664933162 -1.5652346474262473 -0.0040491272717094315 -0.020838093396123213 -56.21722944997293 -0.0047743975680154685 0.02658404448249685 -56.27452447365914 -38.740142701808786 -0.009192024249037211 0.04137364933883614 0.003741821825413028 0.018250249805079173 0.027797232848073925 -0.00016374409414022134 -0.0015732538357474885 -0.013518578886175324 -36.67401531691147 0.028120254961659392 0.016675607437593564 -0.012444230042143437 0.017697140425601846 0.0011814954153227257 -0.02028270736484416 0.02860121977977426 0.006166557863714946 -19.742037345460865 0.001772594445774784 0.008079233626905526 0.007704183976513354 -0.02387381660095972 0.04355256502579878 0.027457871034561265 0.04895049252201397 0.029310327436200958 24.102421959011583 -0.04988462060151775 0.034545437550892046 28.90433457365056 -0.02048229113563184 0.022970807295779588 28.83309490932246 0.007322014988461685 -0.002521066512734428 7.886986044083355 1.9810177208611572 13.8994195706972 -77.48770813477249 25.665425371548583 -8.155759617495471 0.12119210233341948 -0.9899753405379081 -41.282027355035126 -20.150298621112757 -5.788016383593289 6.543434814495966 -0.4705738295697017 0.06051846344011709 -8.081778514397008 -0.03408936536934272 0.03114821657553392 44.53922236839225 -0.0065055507512970035 -0.0029501751638966287 44.54735013279386 12.470034385623183 -0.040571074429170365 -0.014286022792408521 -0.03144049735461703 0.024032134306795648 -0.01756578009808394 -0.0017849995050497308 0.006583129812416836 -0.008680240698490917 11.123447641571152 -0.01784344289192102 -0.0010152962296648732 0.029584171424474625 0.02281691500310304 -0.034316566789536485 -0.04347421555087365 -0.026318365663956702 0.025591751632000677 4.778393588472677 0.006260567930039597 -0.027502190192146638 -0.006977666184783774 -0.011575548803178293 0.022105795660583297 0.002808540449887272 -0.027366319573162563 0.0066221625292787285 -5.564713563568656 -0.030846006279400384 -0.014163561807514295 -6.749452355037648 -0.009041902850566897 -0.0043693018072454935 -6.687323076698783 0.003675119833498621 -0.047143122795557414 -0.014689589973570822 -0.0406670183898787 -0.028745838488667647 8.022018319338173 3.498228106100844 -19.2096406167366 -0.037365252535613416 10.372178807965787 0.02584097841226159 -5.6380960475246695 -15.68255594017769 3.2001875997418265 0.04879731505199567 0.02757981602971491 -0.014831984010699274 -0.0050359409769548955 4.727808527063351 0.002042496962269877 12.434691580840497 -8.199456377529872 6.844648731372179 0.04551544532984216 46.33558665284399 -0.0069951081912525085 -4.3601477042121495 -14.70072625101981 -3.8752354537128135 -0.024936591663271456 -0.015411171703699671 -0.04610667131262468 -0.04091544383064301 -10.748717610833722 -0.00036397432866371114 
